<svg id="Layer_1" data-name="Layer 1" xmlns="http://www.w3.org/2000/svg" viewBox="0 0 400 300"><title>#28 success</title><path d="M207,112.9s30.83,41.47,58.16,37.47,45.67-47,45.67-47l-11-7s-39.17,58.31-73.67-7Z" fill="#68e1fd"/><path d="M207,112.9s30.83,41.47,58.16,37.47,45.67-47,45.67-47l-11-7s-39.17,58.31-73.67-7Z" opacity="0.08"/><path d="M231.13,94.31s8.63,5.15,10.9,13.9,1.79,30.92-16.09,42-37.14,16-34.14,29l-10.25-5,12.75-27.5,29.1-16.46Z" fill="#68e1fd"/><ellipse cx="200.22" cy="236.57" rx="163.84" ry="20.72" fill="#e6e6e6" opacity="0.45"/><path d="M217.45,226.52s3.55,3,7.14,1.32,6.42,1.15,3.84,3.79-12.8,3.27-12.8,3.27l-2.89-5.59Z" fill="#68e1fd"/><path d="M101.53,203.54s-4.64-.16-6.42,3.38-5.75,3.07-5.37-.6,8-10.48,8-10.48l5.73,2.59Z" fill="#68e1fd"/><path d="M242.78,73.83s1,6.81.06,11.41A3.44,3.44,0,0,1,238.77,88c-2.31-.48-5.3-1.82-6.26-5.4l-2.38-5.88A6.15,6.15,0,0,1,232.49,70C236.2,67,242.4,69.66,242.78,73.83Z" fill="#f4a28c"/><polygon points="234.86 76.52 217.02 90.25 225.29 99.54 234.71 86.16 234.86 76.52" fill="#f4a28c"/><path d="M241.09,74.21a27.39,27.39,0,0,1-6.35-.14,5.72,5.72,0,0,1,.34,6.28,4.66,4.66,0,0,1-5.52,2.16l-.37-8.82a7,7,0,0,1,3.2-6.42,27.25,27.25,0,0,1,2.87-1.6c2.48-1.15,6.29.34,8.47-1.5a1.66,1.66,0,0,1,2.68.94c.54,2.66.29,6.9-3.25,8.57A6.45,6.45,0,0,1,241.09,74.21Z" fill="#24285b"/><path d="M235.81,80.1s-.2-2.64-2.17-2.32-1.71,4.12,1,4.33Z" fill="#f4a28c"/><path d="M243.17,78.15l2.05,2.54a1.1,1.1,0,0,1-.59,1.76l-2.6.63Z" fill="#f4a28c"/><path d="M234.44,86.54a8.38,8.38,0,0,1-1.25-4.32s-4.17,2.64-1.45,8.15Z" fill="#ce8172" opacity="0.31"/><path d="M227.92,95.8s-4.7-9.41-23.7-9.5-65.53,24.77-62.33,78.91l39.66,9s7.33-18.21,30.72-26C236.28,140.19,239.73,103.73,227.92,95.8Z" fill="#fff"/><path d="M219.91,88s-44-25.82-78.18-21.82-52.54,43.5-52.54,43.5l9.86,7s34-39.43,55.5-25.46S213.26,133.85,219.91,88Z" fill="#68e1fd"/><path d="M170.3,96.21s-38,19.5-36.5,67.25l24,8.25s3.25-48.75,48.5-53.5c0,0,16.74-9.2,18.3-24.34,0,0,2.27-5.62-14.77-11.14Z" fill="#68e1fd"/><polygon points="228.53 91.68 227.6 97.37 230.82 97.37 231.13 91.25 228.53 91.68" fill="#fff"/><path d="M223.69,108s-8.77,32.09-33.53,35.1-53.64-3.25-53.64-3.25a66.56,66.56,0,0,1,7.55-17.66c5.65-9.3,32.09-.34,32.09-.34Z" opacity="0.08"/><path d="M224.76,91.62s-2.41,6.3,0,7.29c1.22.51,2.73-.26,3.92-1.14a3.28,3.28,0,0,0,1-4l-1-2.2Z" fill="#ffd200"/><path d="M227.6,95.8s1.7,18.41-24.55,32.91-54.87,0-54.87,0l-8.63-13.65,18.25-3.85S199.89,129,224.22,94.62Z" fill="#ffd200"/><path d="M137.1,164.59s-6.21,14.28,7.12,21.62c7.86,4.32,21.73,6.59,31.8,7.72a26,26,0,0,1,19.09,12l15.69,24.82,9.11-5.75-8.73-22.35a48.29,48.29,0,0,0-26-26.87l-3.59-1.53Z" fill="#24285b"/><path d="M167.24,185s.67,24.34-20.33,28-47.33-8.66-47.33-8.66l4.66-8.34s43.34,13.34,40.34-13.66Z" fill="#24285b"/><polygon points="219.91 87.14 223.4 85.34 228.53 91.68 224.6 96.68 219.91 87.14" fill="#fff"/><polygon points="89.19 109.71 87.41 113.7 96.74 120.7 99.05 116.71 89.19 109.71" fill="#68e1fd" opacity="0.26"/><path d="M100.07,138.15l-2.95-.51,1.19-6.8a4.52,4.52,0,0,0-3.66-5.21L84,123.77a4.5,4.5,0,0,0-5.21,3.65l-1.19,6.8-3-.51,1.19-6.8a7.51,7.51,0,0,1,8.68-6.1l10.67,1.87a7.5,7.5,0,0,1,6.1,8.68Z" fill="#68e1fd"/><path d="M100.07,138.15l-2.95-.51,1.19-6.8a4.52,4.52,0,0,0-3.66-5.21L84,123.77a4.5,4.5,0,0,0-5.21,3.65l-1.19,6.8-3-.51,1.19-6.8a7.51,7.51,0,0,1,8.68-6.1l10.67,1.87a7.5,7.5,0,0,1,6.1,8.68Z" fill="#fff" opacity="0.3"/><path d="M88.39,114.43s-9.48,10.14-2.85,12.79,9.29,2.56,11.2-6.52Z" fill="#f4a28c"/><rect x="56.4" y="132.48" width="55.75" height="38.43" transform="translate(27.38 -12.25) rotate(9.91)" fill="#68e1fd"/><path d="M108.19,136.37s10.37,37.9-53.5,22.74l-1.18,6.71,54.92,9.6,6.62-37.86Z" opacity="0.08"/><polygon points="301.56 97.5 303.16 94.14 311.83 100.3 310.83 103.37 301.56 97.5" fill="#68e1fd" opacity="0.4"/><path d="M304.69,95.23s7.64-9.51,13.64-6.68,4.5,7.59-6.5,11.75Z" fill="#f4a28c"/><ellipse cx="338.6" cy="68.65" rx="20.11" ry="4.87" transform="translate(-4.87 105.97) rotate(-17.66)" fill="#ffd200"/><path d="M319.44,74.76s7,28.87,28.35,22.74,10-34.95,10-34.95Z" fill="#ffd200"/><ellipse cx="338.6" cy="68.65" rx="20.11" ry="4.87" transform="translate(-4.87 105.97) rotate(-17.66)" opacity="0.08"/><rect x="346.52" y="92.58" width="5.08" height="19.81" transform="translate(-14.64 110.74) rotate(-17.66)" fill="#ffd200"/><rect x="343.24" y="107.59" width="21.17" height="16.88" transform="translate(-18.53 112.82) rotate(-17.66)" fill="#24285b"/><rect x="348.42" y="111.72" width="10.81" height="8.62" transform="matrix(0.95, -0.3, 0.3, 0.95, -18.53, 112.82)" fill="#ffd200"/><rect x="348.42" y="111.72" width="10.81" height="8.62" transform="matrix(0.95, -0.3, 0.3, 0.95, -18.53, 112.82)" fill="#fff" opacity="0.3"/><path d="M338,97l-11.6,3.69a10.69,10.69,0,0,1-6.49-20.37l4.24-1.35,1,3.23-4.24,1.35a7.3,7.3,0,0,0,4.43,13.92l11.6-3.7Z" fill="#ffd200"/><path d="M355.05,91.51l11.6-3.69a10.69,10.69,0,0,0-6.49-20.38l-4.24,1.35L357,72l4.24-1.35a7.3,7.3,0,0,1,4.43,13.92L354,88.29Z" fill="#ffd200"/><path d="M349.51,78.78c.27,4,0,10.43-4.08,14.47,0,0,10.42,1,12.5-14.29a4.15,4.15,0,0,0-5.38-4.49l-.15,0A4.16,4.16,0,0,0,349.51,78.78Z" fill="#fff" opacity="0.3"/><rect x="317.51" y="51.44" width="2" height="10.51" transform="translate(149.04 332.27) rotate(-68.5)" fill="#c9c9c9"/><rect x="325.25" y="43.41" width="2" height="10.51" transform="translate(11.43 147.12) rotate(-25.85)" fill="#c9c9c9"/><rect x="332.38" y="47.8" width="10.51" height="2" transform="matrix(0.33, -0.94, 0.94, 0.33, 180.6, 351.66)" fill="#c9c9c9"/></svg>